<svg width="372" height="304" viewBox="0 0 372 304" fill="none" xmlns="http://www.w3.org/2000/svg">
<path d="M271 68.3589L235.52 132.397C230.643 138.583 217.633 147.716 204.612 134.762L189.249 107.473C188.64 106.139 186.945 103.544 185.043 103.835C183.141 104.126 181.446 106.746 180.836 108.019L167.486 132.397C165.169 135.369 159.036 141.348 153.037 141.494C145.539 141.676 140.784 137.855 138.406 135.672C136.029 133.489 129.262 125.666 126.336 113.295C123.995 103.398 129.994 92.0701 133.286 87.6432C136.76 84.1866 145.1 76.5093 150.66 73.4529C157.61 69.6324 159.804 67.9951 165.291 66.3577C169.68 65.0478 182.604 59.6264 188.518 57.0794C191.932 55.2601 198.064 50.2026 195.285 44.5264C192.505 38.8503 187.298 29.3052 185.043 25.2421L165.291 61.9915C159.317 63.8714 144.917 70.1054 135.114 80.0023L179.19 0.5H191.627L236.8 82.7312C232.716 83.1557 223.486 83.2042 219.243 80.0023C213.939 75.9999 213.756 76.7276 211.196 72.5433C209.147 69.1958 207.294 65.3268 206.624 63.8107L207.538 61.9915C212.11 66.1151 221.181 74.1806 220.889 73.4529C220.615 72.773 210.425 52.881 204.363 41.0701C205.753 44.2826 207.153 49.4441 206.258 54.8963C205.087 62.0278 196.26 67.8131 191.993 69.8143C185.835 72.1794 173.082 77.1642 171.326 78.183C169.132 79.4565 155.049 85.2782 148.099 94.5565C142.54 101.979 142.979 108.929 143.893 111.476C144.99 114.387 147.624 120.427 149.38 121.3C151.135 122.173 152.794 121.664 153.403 121.3C154.196 120.511 156.951 116.57 161.633 107.109C166.315 97.6492 169.924 92.6159 171.143 91.2818C173.155 88.6135 178.751 83.4225 185.043 84.0047C191.334 84.5868 194.492 86.5517 195.285 87.4613C197.296 89.2806 201.978 94.1926 204.612 99.2866C207.245 104.381 211.196 111.597 212.842 114.568C214 116.752 216.573 121.227 217.597 121.664C218.877 122.209 220.523 122.028 221.986 119.844C223.157 118.098 233.203 99.4685 238.08 90.3721L244.481 79.2746C245.457 77.6979 248.285 73.9987 251.797 71.8155C255.308 69.6324 259.112 68.6015 260.575 68.3589L266.428 67.9951L271 68.3589Z" fill="url(#paint0_linear_1394_50)"/>
<path d="M123.775 96.7396C125.385 91.5001 128.226 87.2794 129.445 85.824C128.043 83.277 126.156 78.0742 122.312 74.5444C118.673 71.2022 115.934 69.8405 111.156 68.5408C106.945 67.3953 102.56 67.7525 100 67.8131L121.764 108.019C121.764 106.442 122.166 101.979 123.775 96.7396Z" fill="url(#paint1_linear_1394_50)"/>
<path d="M271 68.3589L235.52 132.397C230.643 138.583 217.633 147.716 204.612 134.762L189.249 107.473C188.64 106.139 186.945 103.544 185.043 103.835C183.141 104.126 181.446 106.746 180.836 108.019L167.486 132.397C165.169 135.369 159.036 141.348 153.037 141.494C145.539 141.676 140.784 137.855 138.406 135.672C136.029 133.489 129.262 125.666 126.336 113.295C123.995 103.398 129.994 92.0701 133.286 87.6432C136.76 84.1866 145.1 76.5093 150.66 73.4529C157.61 69.6324 159.804 67.9951 165.291 66.3577C169.68 65.0478 182.604 59.6264 188.518 57.0794C191.932 55.2601 198.064 50.2026 195.285 44.5264C192.505 38.8503 187.298 29.3052 185.043 25.2421L165.291 61.9915C159.317 63.8714 144.917 70.1054 135.114 80.0023L179.19 0.5H191.627L236.8 82.7312C232.716 83.1557 223.486 83.2042 219.243 80.0023C213.939 75.9999 213.756 76.7276 211.196 72.5433C209.147 69.1958 207.294 65.3268 206.624 63.8107L207.538 61.9915C212.11 66.1151 221.181 74.1806 220.889 73.4529C220.596 72.7252 208.94 49.9843 203.149 38.7048C204.673 41.1305 207.428 47.7647 206.258 54.8963C205.087 62.0278 196.26 67.8131 191.993 69.8143C185.835 72.1794 173.082 77.1642 171.326 78.183C169.132 79.4565 155.049 85.2782 148.099 94.5565C142.54 101.979 142.979 108.929 143.893 111.476C144.99 114.387 147.624 120.427 149.38 121.3C151.135 122.173 152.794 121.664 153.403 121.3C154.196 120.511 156.951 116.57 161.633 107.109C166.315 97.6492 169.924 92.6159 171.143 91.2818C173.155 88.6135 178.751 83.4225 185.043 84.0047C191.334 84.5868 194.492 86.5517 195.285 87.4613C197.296 89.2806 201.978 94.1926 204.612 99.2866C207.245 104.381 211.196 111.597 212.842 114.568C214 116.752 216.573 121.227 217.597 121.664C218.877 122.209 220.523 122.028 221.986 119.844C223.157 118.098 233.203 99.4685 238.08 90.3721L244.481 79.2746C245.457 77.6979 248.285 73.9987 251.797 71.8155C255.308 69.6324 259.112 68.6015 260.575 68.3589L266.428 67.9951L271 68.3589ZM129.445 85.824C128.226 87.2794 125.385 91.5001 123.775 96.7396C122.166 101.979 121.764 106.442 121.764 108.019L100 67.8131C102.56 67.7525 106.945 67.3953 111.156 68.5408C115.934 69.8405 118.673 71.2022 122.312 74.5445C126.156 78.0742 128.043 83.277 129.445 85.824Z" stroke="#32F1F0"/>
<path d="M37.2297 210.406H15.3604L11.1885 220.5H0.0183218L21.0128 173.397H31.7792L52.841 220.5H41.4017L37.2297 210.406ZM33.7979 202.13L26.3287 184.096L18.8595 202.13H33.7979ZM78.3859 183.76C81.7504 183.76 84.8009 184.545 87.5374 186.115C90.3187 187.64 92.4944 189.816 94.0645 192.642C95.6346 195.423 96.4197 198.676 96.4197 202.399C96.4197 206.122 95.6346 209.397 94.0645 212.223C92.4944 215.005 90.3187 217.18 87.5374 218.75C84.8009 220.276 81.7504 221.038 78.3859 221.038C73.7654 221.038 70.1317 219.58 67.485 216.664V233.554H56.9877V184.298H67.0139V188.47C69.6158 185.33 73.4065 183.76 78.3859 183.76ZM76.5691 212.425C79.2607 212.425 81.4588 211.528 83.1635 209.734C84.9131 207.894 85.7878 205.449 85.7878 202.399C85.7878 199.349 84.9131 196.926 83.1635 195.132C81.4588 193.292 79.2607 192.373 76.5691 192.373C73.8775 192.373 71.6569 193.292 69.9074 195.132C68.2027 196.926 67.3504 199.349 67.3504 202.399C67.3504 205.449 68.2027 207.894 69.9074 209.734C71.6569 211.528 73.8775 212.425 76.5691 212.425ZM103.447 170.571H113.944V220.5H103.447V170.571ZM123.686 184.298H134.184V220.5H123.686V184.298ZM128.935 179.251C127.006 179.251 125.436 178.69 124.225 177.569C123.013 176.447 122.408 175.057 122.408 173.397C122.408 171.737 123.013 170.347 124.225 169.225C125.436 168.104 127.006 167.543 128.935 167.543C130.864 167.543 132.434 168.081 133.645 169.158C134.856 170.234 135.462 171.58 135.462 173.195C135.462 174.945 134.856 176.403 133.645 177.569C132.434 178.69 130.864 179.251 128.935 179.251ZM161.421 221.038C157.563 221.038 154.087 220.253 150.991 218.683C147.941 217.068 145.541 214.848 143.791 212.021C142.087 209.195 141.234 205.988 141.234 202.399C141.234 198.81 142.087 195.603 143.791 192.777C145.541 189.95 147.941 187.752 150.991 186.182C154.087 184.567 157.563 183.76 161.421 183.76C165.234 183.76 168.554 184.567 171.38 186.182C174.251 187.752 176.337 190.018 177.638 192.978L169.496 197.352C167.612 194.033 164.898 192.373 161.354 192.373C158.618 192.373 156.352 193.27 154.558 195.064C152.763 196.859 151.866 199.304 151.866 202.399C151.866 205.494 152.763 207.939 154.558 209.734C156.352 211.528 158.618 212.425 161.354 212.425C164.943 212.425 167.657 210.765 169.496 207.446L177.638 211.887C176.337 214.758 174.251 217.001 171.38 218.616C168.554 220.231 165.234 221.038 161.421 221.038ZM198.284 183.76C203.892 183.76 208.198 185.105 211.204 187.797C214.209 190.444 215.712 194.459 215.712 199.842V220.5H205.888V215.992C203.914 219.356 200.236 221.038 194.852 221.038C192.071 221.038 189.649 220.567 187.585 219.625C185.566 218.683 184.019 217.382 182.942 215.722C181.865 214.063 181.327 212.178 181.327 210.07C181.327 206.706 182.583 204.059 185.095 202.13C187.652 200.201 191.578 199.236 196.871 199.236H205.215C205.215 196.948 204.52 195.199 203.129 193.988C201.738 192.732 199.652 192.104 196.871 192.104C194.942 192.104 193.035 192.418 191.151 193.046C189.312 193.629 187.742 194.436 186.441 195.468L182.673 188.134C184.647 186.743 187.002 185.666 189.738 184.904C192.52 184.141 195.368 183.76 198.284 183.76ZM197.477 213.973C199.271 213.973 200.864 213.569 202.254 212.762C203.645 211.909 204.632 210.676 205.215 209.061V205.36H198.015C193.708 205.36 191.555 206.773 191.555 209.599C191.555 210.945 192.071 212.021 193.103 212.829C194.179 213.592 195.637 213.973 197.477 213.973ZM243.102 221.038C239.244 221.038 235.768 220.253 232.672 218.683C229.622 217.068 227.222 214.848 225.472 212.021C223.768 209.195 222.915 205.988 222.915 202.399C222.915 198.81 223.768 195.603 225.472 192.777C227.222 189.95 229.622 187.752 232.672 186.182C235.768 184.567 239.244 183.76 243.102 183.76C246.915 183.76 250.235 184.567 253.061 186.182C255.932 187.752 258.018 190.018 259.319 192.978L251.177 197.352C249.293 194.033 246.579 192.373 243.035 192.373C240.299 192.373 238.033 193.27 236.239 195.064C234.444 196.859 233.547 199.304 233.547 202.399C233.547 205.494 234.444 207.939 236.239 209.734C238.033 211.528 240.299 212.425 243.035 212.425C246.624 212.425 249.338 210.765 251.177 207.446L259.319 211.887C258.018 214.758 255.932 217.001 253.061 218.616C250.235 220.231 246.915 221.038 243.102 221.038ZM265.363 184.298H275.861V220.5H265.363V184.298ZM270.612 179.251C268.683 179.251 267.113 178.69 265.902 177.569C264.69 176.447 264.085 175.057 264.085 173.397C264.085 171.737 264.69 170.347 265.902 169.225C267.113 168.104 268.683 167.543 270.612 167.543C272.541 167.543 274.111 168.081 275.322 169.158C276.533 170.234 277.139 171.58 277.139 173.195C277.139 174.945 276.533 176.403 275.322 177.569C274.111 178.69 272.541 179.251 270.612 179.251ZM302.829 221.038C299.016 221.038 295.584 220.253 292.534 218.683C289.528 217.068 287.173 214.848 285.468 212.021C283.764 209.195 282.911 205.988 282.911 202.399C282.911 198.81 283.764 195.603 285.468 192.777C287.173 189.95 289.528 187.752 292.534 186.182C295.584 184.567 299.016 183.76 302.829 183.76C306.642 183.76 310.052 184.567 313.057 186.182C316.063 187.752 318.418 189.95 320.123 192.777C321.827 195.603 322.68 198.81 322.68 202.399C322.68 205.988 321.827 209.195 320.123 212.021C318.418 214.848 316.063 217.068 313.057 218.683C310.052 220.253 306.642 221.038 302.829 221.038ZM302.829 212.425C305.521 212.425 307.719 211.528 309.424 209.734C311.173 207.894 312.048 205.449 312.048 202.399C312.048 199.349 311.173 196.926 309.424 195.132C307.719 193.292 305.521 192.373 302.829 192.373C300.138 192.373 297.917 193.292 296.167 195.132C294.418 196.926 293.543 199.349 293.543 202.399C293.543 205.449 294.418 207.894 296.167 209.734C297.917 211.528 300.138 212.425 302.829 212.425ZM305.655 169.965H316.96L304.781 179.655H296.571L305.655 169.965ZM351.7 183.76C356.186 183.76 359.797 185.105 362.534 187.797C365.315 190.489 366.706 194.481 366.706 199.775V220.5H356.208V201.39C356.208 198.519 355.58 196.388 354.324 194.997C353.068 193.562 351.251 192.844 348.874 192.844C346.227 192.844 344.119 193.674 342.549 195.334C340.979 196.948 340.193 199.371 340.193 202.601V220.5H329.696V184.298H339.722V188.537C341.113 187.012 342.84 185.846 344.904 185.038C346.967 184.186 349.233 183.76 351.7 183.76Z" fill="#C7C7C7"/>
<path d="M149.076 292.264V294.5H130.512L122.556 269.228L114.652 294.5H96.0884V292.264H107.84L95.9324 258.152H104.72L111.896 279.056L118.344 258.152H126.82L133.216 279.056L140.444 258.152H149.232L137.324 292.264H149.076ZM181.085 292.264V258.152H207.293V265.38H189.197V272.868H205.473V279.784H189.197V287.324H207.865V292.264H212.909V294.5H176.041V292.264H181.085ZM274.909 292.264V294.5H237.625V292.264H242.669V258.152H256.813C259.274 258.152 261.389 258.447 263.157 259.036C264.959 259.625 266.311 260.423 267.213 261.428C268.842 263.3 269.657 265.415 269.657 267.772C269.657 270.615 268.738 272.729 266.901 274.116C266.277 274.601 265.843 274.913 265.601 275.052C265.358 275.156 264.925 275.347 264.301 275.624C266.554 276.109 268.339 277.132 269.657 278.692C271.009 280.217 271.685 282.124 271.685 284.412C271.685 287.844 270.333 290.461 267.629 292.264H274.909ZM250.781 287.636H256.345C258.667 287.636 260.401 287.359 261.545 286.804C262.723 286.215 263.313 285.088 263.313 283.424C263.313 281.725 262.689 280.616 261.441 280.096C260.227 279.541 258.269 279.264 255.565 279.264H250.781V287.636ZM250.781 272.868H254.629C256.882 272.868 258.546 272.625 259.621 272.14C260.73 271.655 261.285 270.615 261.285 269.02C261.285 267.391 260.782 266.316 259.777 265.796C258.771 265.276 257.073 265.016 254.681 265.016H250.781V272.868Z" fill="#00A4E8"/>
<defs>
<linearGradient id="paint0_linear_1394_50" x1="185.5" y1="141.5" x2="185.5" y2="0.500001" gradientUnits="userSpaceOnUse">
<stop offset="0.278846" stop-color="#00A4E8"/>
<stop offset="0.956731" stop-color="#952EF1"/>
</linearGradient>
<linearGradient id="paint1_linear_1394_50" x1="185.5" y1="141.5" x2="185.5" y2="0.500001" gradientUnits="userSpaceOnUse">
<stop offset="0.278846" stop-color="#00A4E8"/>
<stop offset="0.956731" stop-color="#952EF1"/>
</linearGradient>
</defs>
</svg>
