<svg width="625" height="142" viewBox="0 0 625 142" fill="none" xmlns="http://www.w3.org/2000/svg">
<path d="M171.829 68.3589L136.348 132.397C131.471 138.583 118.462 147.716 105.44 134.762L90.0778 107.473C89.4682 106.139 87.7734 103.544 85.8714 103.835C83.9694 104.126 82.2746 106.746 81.665 108.019L68.3142 132.397C65.9976 135.369 59.8648 141.348 53.866 141.494C46.3676 141.676 41.6126 137.855 39.235 135.672C36.8575 133.489 30.0906 125.666 27.1644 113.295C24.8235 103.398 30.8222 92.0701 34.1142 87.6432C37.589 84.1866 45.9287 76.5093 51.4885 73.4529C58.4382 69.6324 60.6329 67.9951 66.1195 66.3577C70.5088 65.0478 83.4329 59.6264 89.3463 57.0794C92.7602 55.2601 98.893 50.2026 96.1131 44.5264C93.3332 38.8503 88.127 29.3052 85.8714 25.2421L66.1195 61.9915C60.1452 63.8714 45.7458 70.1054 35.9431 80.0023L80.019 0.5H92.4554L137.629 82.7312C133.544 83.1557 124.314 83.2042 120.071 80.0023C114.768 75.9999 114.585 76.7276 112.024 72.5433C109.976 69.1958 108.123 65.3268 107.452 63.8107L108.367 61.9915C112.939 66.1151 122.01 74.1806 121.717 73.4529C121.444 72.773 111.253 52.881 105.191 41.0701C106.581 44.2826 107.981 49.4441 107.086 54.8963C105.916 62.0278 97.0885 67.8131 92.8211 69.8143C86.6639 72.1794 73.9105 77.1642 72.1548 78.183C69.9602 79.4565 55.8778 85.2782 48.9281 94.5565C43.3683 101.979 43.8072 108.929 44.7217 111.476C45.819 114.387 48.4526 120.427 50.2083 121.3C51.964 122.173 53.6222 121.664 54.2318 121.3C55.0243 120.511 57.7799 116.57 62.4618 107.109C67.1437 97.6492 70.7527 92.6159 71.9719 91.2818C73.9837 88.6135 79.58 83.4225 85.8714 84.0047C92.1627 84.5868 95.3206 86.5517 96.1131 87.4613C98.1249 89.2806 102.807 94.1926 105.44 99.2866C108.074 104.381 112.024 111.597 113.67 114.568C114.829 116.752 117.401 121.227 118.425 121.664C119.706 122.209 121.352 122.028 122.815 119.844C123.985 118.098 134.032 99.4685 138.909 90.3721L145.31 79.2746C146.285 77.6979 149.114 73.9987 152.625 71.8155C156.137 69.6324 159.941 68.6015 161.404 68.3589L167.256 67.9951L171.829 68.3589Z" fill="url(#paint0_linear_1396_71)"/>
<path d="M24.604 96.7396C26.2134 91.5001 29.0543 87.2794 30.2735 85.824C28.8714 83.277 26.9849 78.0742 23.1409 74.5444C19.5012 71.2022 16.7628 69.8405 11.9848 68.5408C7.77326 67.3953 3.38904 67.7525 0.828613 67.8131L22.5923 108.019C22.5923 106.442 22.9946 101.979 24.604 96.7396Z" fill="url(#paint1_linear_1396_71)"/>
<path d="M171.829 68.3589L136.348 132.397C131.471 138.583 118.462 147.716 105.44 134.762L90.0778 107.473C89.4682 106.139 87.7734 103.544 85.8714 103.835C83.9694 104.126 82.2746 106.746 81.665 108.019L68.3142 132.397C65.9976 135.369 59.8648 141.348 53.866 141.494C46.3676 141.676 41.6126 137.855 39.235 135.672C36.8575 133.489 30.0906 125.666 27.1644 113.295C24.8235 103.398 30.8222 92.0701 34.1142 87.6432C37.589 84.1866 45.9287 76.5093 51.4885 73.4529C58.4382 69.6324 60.6329 67.9951 66.1195 66.3577C70.5088 65.0478 83.4329 59.6264 89.3463 57.0794C92.7602 55.2601 98.893 50.2026 96.1131 44.5264C93.3332 38.8503 88.127 29.3052 85.8714 25.2421L66.1195 61.9915C60.1452 63.8714 45.7458 70.1054 35.9431 80.0023L80.019 0.5H92.4554L137.629 82.7312C133.544 83.1557 124.314 83.2042 120.071 80.0023C114.768 75.9999 114.585 76.7276 112.024 72.5433C109.976 69.1958 108.123 65.3268 107.452 63.8107L108.367 61.9915C112.939 66.1151 122.01 74.1806 121.717 73.4529C121.425 72.7252 109.769 49.9843 103.977 38.7048C105.501 41.1305 108.257 47.7647 107.086 54.8963C105.916 62.0278 97.0885 67.8131 92.8211 69.8143C86.6639 72.1794 73.9105 77.1642 72.1548 78.183C69.9602 79.4565 55.8778 85.2782 48.9281 94.5565C43.3683 101.979 43.8072 108.929 44.7217 111.476C45.819 114.387 48.4526 120.427 50.2083 121.3C51.964 122.173 53.6222 121.664 54.2318 121.3C55.0243 120.511 57.7799 116.57 62.4618 107.109C67.1437 97.6492 70.7527 92.6159 71.9719 91.2818C73.9837 88.6135 79.58 83.4225 85.8714 84.0047C92.1627 84.5868 95.3206 86.5517 96.1131 87.4613C98.1249 89.2806 102.807 94.1926 105.44 99.2866C108.074 104.381 112.024 111.597 113.67 114.568C114.829 116.752 117.401 121.227 118.425 121.664C119.706 122.209 121.352 122.028 122.815 119.844C123.985 118.098 134.032 99.4685 138.909 90.3721L145.31 79.2746C146.285 77.6979 149.114 73.9987 152.625 71.8155C156.137 69.6324 159.941 68.6015 161.404 68.3589L167.256 67.9951L171.829 68.3589ZM30.2735 85.824C29.0543 87.2794 26.2134 91.5001 24.604 96.7396C22.9946 101.979 22.5923 106.442 22.5923 108.019L0.828613 67.8131C3.38904 67.7525 7.77326 67.3953 11.9848 68.5408C16.7628 69.8405 19.5012 71.2022 23.1409 74.5445C26.9849 78.0742 28.8714 83.277 30.2735 85.824Z" stroke="#32F1F0"/>
<path d="M236.302 58.1H211.602L206.89 69.5H194.274L217.986 16.3H230.146L253.934 69.5H241.014L236.302 58.1ZM232.426 48.752L223.99 28.384L215.554 48.752H232.426ZM282.785 28.004C286.585 28.004 290.03 28.8907 293.121 30.664C296.262 32.3867 298.72 34.844 300.493 38.036C302.266 41.1773 303.153 44.8507 303.153 49.056C303.153 53.2613 302.266 56.96 300.493 60.152C298.72 63.2933 296.262 65.7507 293.121 67.524C290.03 69.2467 286.585 70.108 282.785 70.108C277.566 70.108 273.462 68.4613 270.473 65.168V84.244H258.617V28.612H269.941V33.324C272.88 29.7773 277.161 28.004 282.785 28.004ZM280.733 60.38C283.773 60.38 286.256 59.3667 288.181 57.34C290.157 55.2627 291.145 52.5013 291.145 49.056C291.145 45.6107 290.157 42.8747 288.181 40.848C286.256 38.7707 283.773 37.732 280.733 37.732C277.693 37.732 275.185 38.7707 273.209 40.848C271.284 42.8747 270.321 45.6107 270.321 49.056C270.321 52.5013 271.284 55.2627 273.209 57.34C275.185 59.3667 277.693 60.38 280.733 60.38ZM311.09 13.108H322.946V69.5H311.09V13.108ZM333.949 28.612H345.805V69.5H333.949V28.612ZM339.877 22.912C337.698 22.912 335.925 22.2787 334.557 21.012C333.189 19.7453 332.505 18.1747 332.505 16.3C332.505 14.4253 333.189 12.8547 334.557 11.588C335.925 10.3213 337.698 9.688 339.877 9.688C342.056 9.688 343.829 10.296 345.197 11.512C346.565 12.728 347.249 14.248 347.249 16.072C347.249 18.048 346.565 19.6947 345.197 21.012C343.829 22.2787 342.056 22.912 339.877 22.912ZM376.568 70.108C372.211 70.108 368.284 69.2213 364.788 67.448C361.343 65.624 358.632 63.116 356.656 59.924C354.731 56.732 353.768 53.1093 353.768 49.056C353.768 45.0027 354.731 41.38 356.656 38.188C358.632 34.996 361.343 32.5133 364.788 30.74C368.284 28.916 372.211 28.004 376.568 28.004C380.875 28.004 384.624 28.916 387.816 30.74C391.059 32.5133 393.415 35.072 394.884 38.416L385.688 43.356C383.56 39.6067 380.495 37.732 376.492 37.732C373.402 37.732 370.843 38.7453 368.816 40.772C366.79 42.7987 365.776 45.56 365.776 49.056C365.776 52.552 366.79 55.3133 368.816 57.34C370.843 59.3667 373.402 60.38 376.492 60.38C380.546 60.38 383.611 58.5053 385.688 54.756L394.884 59.772C393.415 63.0147 391.059 65.548 387.816 67.372C384.624 69.196 380.875 70.108 376.568 70.108ZM418.203 28.004C424.536 28.004 429.4 29.524 432.795 32.564C436.189 35.5533 437.887 40.088 437.887 46.168V69.5H426.791V64.408C424.561 68.208 420.407 70.108 414.327 70.108C411.185 70.108 408.449 69.576 406.119 68.512C403.839 67.448 402.091 65.9787 400.875 64.104C399.659 62.2293 399.051 60.1013 399.051 57.72C399.051 53.92 400.469 50.9307 403.307 48.752C406.195 46.5733 410.628 45.484 416.607 45.484H426.031C426.031 42.9 425.245 40.924 423.675 39.556C422.104 38.1373 419.748 37.428 416.607 37.428C414.428 37.428 412.275 37.7827 410.147 38.492C408.069 39.1507 406.296 40.0627 404.827 41.228L400.571 32.944C402.8 31.3733 405.46 30.1573 408.551 29.296C411.692 28.4347 414.909 28.004 418.203 28.004ZM417.291 62.128C419.317 62.128 421.116 61.672 422.687 60.76C424.257 59.7973 425.372 58.404 426.031 56.58V52.4H417.899C413.035 52.4 410.603 53.996 410.603 57.188C410.603 58.708 411.185 59.924 412.351 60.836C413.567 61.6973 415.213 62.128 417.291 62.128ZM468.822 70.108C464.465 70.108 460.538 69.2213 457.042 67.448C453.597 65.624 450.886 63.116 448.91 59.924C446.985 56.732 446.022 53.1093 446.022 49.056C446.022 45.0027 446.985 41.38 448.91 38.188C450.886 34.996 453.597 32.5133 457.042 30.74C460.538 28.916 464.465 28.004 468.822 28.004C473.129 28.004 476.878 28.916 480.07 30.74C483.313 32.5133 485.669 35.072 487.138 38.416L477.942 43.356C475.814 39.6067 472.749 37.732 468.746 37.732C465.656 37.732 463.097 38.7453 461.07 40.772C459.044 42.7987 458.03 45.56 458.03 49.056C458.03 52.552 459.044 55.3133 461.07 57.34C463.097 59.3667 465.656 60.38 468.746 60.38C472.8 60.38 475.865 58.5053 477.942 54.756L487.138 59.772C485.669 63.0147 483.313 65.548 480.07 67.372C476.878 69.196 473.129 70.108 468.822 70.108ZM493.965 28.612H505.821V69.5H493.965V28.612ZM499.893 22.912C497.714 22.912 495.941 22.2787 494.573 21.012C493.205 19.7453 492.521 18.1747 492.521 16.3C492.521 14.4253 493.205 12.8547 494.573 11.588C495.941 10.3213 497.714 9.688 499.893 9.688C502.071 9.688 503.845 10.296 505.213 11.512C506.581 12.728 507.265 14.248 507.265 16.072C507.265 18.048 506.581 19.6947 505.213 21.012C503.845 22.2787 502.071 22.912 499.893 22.912ZM536.28 70.108C531.973 70.108 528.097 69.2213 524.652 67.448C521.257 65.624 518.597 63.116 516.672 59.924C514.747 56.732 513.784 53.1093 513.784 49.056C513.784 45.0027 514.747 41.38 516.672 38.188C518.597 34.996 521.257 32.5133 524.652 30.74C528.097 28.916 531.973 28.004 536.28 28.004C540.587 28.004 544.437 28.916 547.832 30.74C551.227 32.5133 553.887 34.996 555.812 38.188C557.737 41.38 558.7 45.0027 558.7 49.056C558.7 53.1093 557.737 56.732 555.812 59.924C553.887 63.116 551.227 65.624 547.832 67.448C544.437 69.2213 540.587 70.108 536.28 70.108ZM536.28 60.38C539.32 60.38 541.803 59.3667 543.728 57.34C545.704 55.2627 546.692 52.5013 546.692 49.056C546.692 45.6107 545.704 42.8747 543.728 40.848C541.803 38.7707 539.32 37.732 536.28 37.732C533.24 37.732 530.732 38.7707 528.756 40.848C526.78 42.8747 525.792 45.6107 525.792 49.056C525.792 52.5013 526.78 55.2627 528.756 57.34C530.732 59.3667 533.24 60.38 536.28 60.38ZM539.472 12.424H552.24L538.484 23.368H529.212L539.472 12.424ZM591.477 28.004C596.543 28.004 600.622 29.524 603.713 32.564C606.854 35.604 608.425 40.1133 608.425 46.092V69.5H596.569V47.916C596.569 44.6733 595.86 42.2667 594.441 40.696C593.022 39.0747 590.97 38.264 588.285 38.264C585.295 38.264 582.914 39.2013 581.141 41.076C579.367 42.9 578.481 45.636 578.481 49.284V69.5H566.625V28.612H577.949V33.4C579.519 31.6773 581.47 30.36 583.801 29.448C586.131 28.4853 588.69 28.004 591.477 28.004Z" fill="#002938"/>
<path d="M308.903 134.049V136.5H288.554L279.833 108.798L271.169 136.5H250.82V134.049H263.702L250.649 96.657H260.282L268.148 119.571L275.216 96.657H284.507L291.518 119.571L299.441 96.657H309.074L296.021 134.049H308.903ZM343.989 134.049V96.657H372.717V104.58H352.881V112.788H370.722V120.369H352.881V128.634H373.344V134.049H378.873V136.5H338.46V134.049H343.989ZM446.834 134.049V136.5H405.965V134.049H411.494V96.657H426.998C429.696 96.657 432.014 96.98 433.952 97.626C435.928 98.272 437.41 99.146 438.398 100.248C440.184 102.3 441.077 104.618 441.077 107.202C441.077 110.318 440.07 112.636 438.056 114.156C437.372 114.688 436.897 115.03 436.631 115.182C436.365 115.296 435.89 115.505 435.206 115.809C437.676 116.341 439.633 117.462 441.077 119.172C442.559 120.844 443.3 122.934 443.3 125.442C443.3 129.204 441.818 132.073 438.854 134.049H446.834ZM420.386 128.976H426.485C429.031 128.976 430.931 128.672 432.185 128.064C433.477 127.418 434.123 126.183 434.123 124.359C434.123 122.497 433.439 121.281 432.071 120.711C430.741 120.103 428.594 119.799 425.63 119.799H420.386V128.976ZM420.386 112.788H424.604C427.074 112.788 428.898 112.522 430.076 111.99C431.292 111.458 431.9 110.318 431.9 108.57C431.9 106.784 431.349 105.606 430.247 105.036C429.145 104.466 427.283 104.181 424.661 104.181H420.386V112.788Z" fill="#00A4E8"/>
<defs>
<linearGradient id="paint0_linear_1396_71" x1="86.3286" y1="141.5" x2="86.3286" y2="0.500001" gradientUnits="userSpaceOnUse">
<stop offset="0.278846" stop-color="#00A4E8"/>
<stop offset="0.956731" stop-color="#952EF1"/>
</linearGradient>
<linearGradient id="paint1_linear_1396_71" x1="86.3286" y1="141.5" x2="86.3286" y2="0.500001" gradientUnits="userSpaceOnUse">
<stop offset="0.278846" stop-color="#00A4E8"/>
<stop offset="0.956731" stop-color="#952EF1"/>
</linearGradient>
</defs>
</svg>
